# xmcd CD database file
#
# Track frame offsets:
#	150
#	16675
#	33730
#
# Disc length: 727 seconds
#
# Revision: 2
# Processed by: cddbd v1.5.2PL0 Copyright (c) Steve Scherf et al.
# Submitted via: CDex 1.70beta2
#
DISCID=1902d503
DTITLE=Vertical Horizon - You're A God
DYEAR=2000
DGENRE=Rock
TTITLE0=You're A God
TTITLE1=You're A God (radio remix)
TTITLE2=Wash Away
EXTD=YEAR: 2000
EXTT0=
EXTT1=
EXTT2=
PLAYORDER=
